<svg width="203" height="304" viewBox="0 0 203 304" fill="none" xmlns="http://www.w3.org/2000/svg">
<g clip-path="url(#clip0_2_7)">
<path d="M101 0L188.469 151.5H13.5314L101 0Z" fill="black"/>
<path d="M101.366 303.183L13.623 151.842L188.56 151.524L101.366 303.183Z" fill="#A4B5F2"/>
<circle cx="101.5" cy="148.5" r="53.5" fill="#9CF6FC"/>
<path d="M68.09 170V167.69H68.805C69.6117 167.69 70.345 167.617 71.005 167.47C71.7017 167.287 72.2517 166.938 72.655 166.425C73.095 165.875 73.315 165.068 73.315 164.005V136.78C73.315 135.68 73.095 134.873 72.655 134.36C72.2517 133.81 71.7017 133.462 71.005 133.315C70.345 133.132 69.6117 133.04 68.805 133.04H68.09V130.73H82.885C86.075 130.73 88.715 131.133 90.805 131.94C92.895 132.71 94.4533 133.883 95.48 135.46C96.5067 137 97.02 138.962 97.02 141.345C97.02 143.288 96.6167 144.938 95.81 146.295C95.0033 147.615 93.9767 148.678 92.73 149.485C91.52 150.292 90.255 150.915 88.935 151.355L96.47 163.29C96.9467 164.023 97.405 164.665 97.845 165.215C98.285 165.765 98.725 166.223 99.165 166.59C99.6417 166.957 100.118 167.232 100.595 167.415C101.108 167.598 101.658 167.69 102.245 167.69H102.41V170H101.64C99.9167 170 98.4867 169.945 97.35 169.835C96.25 169.688 95.3333 169.45 94.6 169.12C93.8667 168.753 93.2067 168.24 92.62 167.58C92.07 166.92 91.4833 166.077 90.86 165.05L83.435 152.675H78.87V164.005C78.87 165.068 79.0717 165.875 79.475 166.425C79.915 166.938 80.465 167.287 81.125 167.47C81.8217 167.617 82.5733 167.69 83.38 167.69H84.095V170H68.09ZM82.72 150.09C84.8833 150.09 86.57 149.778 87.78 149.155C88.99 148.495 89.8517 147.542 90.365 146.295C90.8783 145.012 91.135 143.417 91.135 141.51C91.135 139.53 90.86 137.953 90.31 136.78C89.76 135.57 88.8617 134.708 87.615 134.195C86.3683 133.645 84.7 133.37 82.61 133.37H78.87V150.09H82.72ZM104.184 170V167.69H104.899C105.742 167.69 106.494 167.598 107.154 167.415C107.85 167.232 108.4 166.865 108.804 166.315C109.207 165.728 109.409 164.867 109.409 163.73V136.78C109.409 135.68 109.189 134.873 108.749 134.36C108.345 133.81 107.795 133.462 107.099 133.315C106.439 133.132 105.705 133.04 104.899 133.04H104.184V130.73H119.639C124.259 130.73 127.669 131.757 129.869 133.81C132.069 135.827 133.169 138.632 133.169 142.225C133.169 143.875 132.912 145.452 132.399 146.955C131.885 148.422 131.042 149.742 129.869 150.915C128.732 152.088 127.21 153.023 125.304 153.72C123.434 154.38 121.142 154.71 118.429 154.71H114.964V164.005C114.964 165.068 115.165 165.875 115.569 166.425C116.009 166.938 116.559 167.287 117.219 167.47C117.915 167.617 118.667 167.69 119.474 167.69H121.289V170H104.184ZM117.879 152.125C119.529 152.125 120.94 151.96 122.114 151.63C123.324 151.263 124.295 150.695 125.029 149.925C125.799 149.155 126.349 148.165 126.679 146.955C127.045 145.708 127.229 144.205 127.229 142.445C127.229 140.392 126.954 138.705 126.404 137.385C125.854 136.028 124.955 135.02 123.709 134.36C122.462 133.7 120.794 133.37 118.704 133.37H114.964V152.125H117.879Z" fill="black"/>
</g>
<defs>
<clipPath id="clip0_2_7">
<rect width="202.366" height="303.366" fill="white"/>
</clipPath>
</defs>
</svg>
